<?xml version="1.0" encoding="UTF-8"?>
<svg xmlns="http://www.w3.org/2000/svg" version="1.1" xmlns:xlink="http://www.w3.org/1999/xlink" viewBox="0 0 1000 1000">
  <defs>
    <style>
      .cls-1 {
        fill: #ff66c4;
      }

      .cls-2 {
        fill: #fff;
      }

      .cls-3 {
        fill: none;
      }

      .cls-4 {
        clip-path: url(#clippath-1);
      }

      .cls-5 {
        fill: #f4f3f3;
      }

      .cls-6 {
        clip-path: url(#clippath-3);
      }

      .cls-7 {
        clip-path: url(#clippath-2);
      }

      .cls-8 {
        clip-path: url(#clippath);
      }
    </style>
    <clipPath id="clippath">
      <rect class="cls-3" x="-1.2" width="1002.5" height="1000.8"/>
    </clipPath>
    <clipPath id="clippath-1">
      <circle class="cls-3" cx="500" cy="501.2" r="501.2"/>
    </clipPath>
    <clipPath id="clippath-2">
      <rect class="cls-3" x="466.4" y="533" width="44.3" height="53.2"/>
    </clipPath>
    <clipPath id="clippath-3">
      <rect class="cls-3" x="516" y="355.2" width="69.3" height="51"/>
    </clipPath>
  </defs>
  <!-- Generator: Adobe Illustrator 28.7.4, SVG Export Plug-In . SVG Version: 1.2.0 Build 166)  -->
  <g>
    <g id="Layer_1">
      <g class="cls-8">
        <g class="cls-4">
          <path class="cls-1" d="M-1.2,0h1002.5v1002.5H-1.2V0Z"/>
        </g>
      </g>
      <path class="cls-5" d="M333.8,902.6l-5.6,14.2-7-2.8,12.6-31.7,7,2.8-5.6,14.2,15.6-10.2,8.9,3.6-18.4,11,6.3,20.8-9.4-3.8-4.4-18.1Z"/>
      <path class="cls-5" d="M384.7,926.4l-15-4.3,1.1-4,15,4.3-1.1,4Z"/>
      <path class="cls-5" d="M423.5,934c.2-1.1,0-2.1-.7-3-.6-1-1.5-1.6-2.6-1.8l-4.7-.9-1.5,8.1,4.7.9c1.1.2,2.1,0,3.1-.7,1-.6,1.6-1.5,1.8-2.6ZM423.8,919.6c.2-1.1,0-2-.6-2.9-.6-.9-1.5-1.5-2.5-1.7l-2.5-.5-1.5,7.7,2.5.5c1.1.2,2,0,2.9-.6.9-.6,1.5-1.4,1.7-2.5ZM431,935.7c-.5,2.9-1.9,5.1-4,6.5-2.1,1.4-4.8,1.8-8,1.2l-13.5-2.5,6.3-33.5,11.5,2.2c1.9.4,3.5,1.1,4.7,2.1,1.3,1,2.1,2.2,2.7,3.6.6,1.4.7,2.9.4,4.4-.3,1.7-.9,3.1-1.9,4.2-1,1.1-2.1,1.9-3.4,2.2,1.8.7,3.2,2,4.2,3.7,1.1,1.7,1.4,3.7,1,6Z"/>
      <path class="cls-5" d="M473.3,943.2l-.5,6.8-19.7-1.6,2.8-34,19.7,1.6-.6,6.8-12.2-1-.5,6.8,11.7,1-.5,6.8-11.7-1-.6,6.9,12.2,1Z"/>
      <path class="cls-5" d="M517.5,937.2l-4.7-12-3.9,12.3,8.6-.3ZM530.6,949.9l-8.1.3-2.7-6.8-13,.4-2.3,6.9-8.1.3,12.8-34.5,6.4-.2,14.9,33.7Z"/>
      <path class="cls-5" d="M569,910.8l7.4-1.1,3.1,20.6c.7,4.5,0,8.1-2.1,10.7-2.1,2.7-5.3,4.3-9.7,5-4.4.7-8,0-10.8-1.9-2.8-1.9-4.5-5.1-5.2-9.6l-3.1-20.6,7.4-1.1,2.9,19.5c.4,2.3,1.1,4,2.2,5.2,1.1,1.1,2.9,1.5,5.4,1.1,2.6-.4,4.2-1.3,4.8-2.7.7-1.4.9-3.2.5-5.6l-2.9-19.5Z"/>
      <path class="cls-5" d="M613.8,907.8l7.1,26.4-7.3,2-7.1-26.4-9.4,2.5-1.8-6.6,26.1-7,1.8,6.6-9.4,2.5Z"/>
      <path class="cls-5" d="M662.2,920.5l-6-15.2-18.2-11.9,8.3-3.3,11.2,8.2,2.5-13.7,8.4-3.3-5.2,21.1,6,15.2-7,2.8Z"/>
      <g class="cls-7">
        <path class="cls-1" d="M466.4,533h44.3v53.2h-44.3v-53.2Z"/>
      </g>
      <g class="cls-6">
        <path class="cls-1" d="M516,355.2h69.2v51h-69.2v-51Z"/>
      </g>
      <g>
        <path class="cls-2" d="M481.1,682.9c12.2-4.5,24.3-9.6,37.2-11.8,40-6.6,86.5,9.1,89.9,55,7,93.4-143.5,101.3-149.8,3.3-.6-9.5,1-19.3-.8-28.7-36.2,21.3-78.3,41.4-121,43.7-45.3,2.5-84.3-20.9-79.8-70.9s7.4-21.3,15.4-17c8.4,4.5,7.7,25.6,9,34,3.7,24.6,19.2,40,43.6,44.7,46.9,8.9,93-18.4,132.4-40.1l1.2-169.2-8.5,19.4c-5.9,9.9-14.1,19.7-25.7,22.9-22.3,6.1-40.6-7.8-37.9-31.4,2.9-25.6,51.7-32.2,70.9-39.2,2.7-37.5-43.6-35.8-60.3-11.8-4.5.4-1.5-3.1,0-4.9,16-19.8,58.2-31.3,75.3-8.1,12.6,17,5.2,57.4,7.3,78.5.5,5.2,1.4,7.1,1.6,12.9.8,39.5-.5,79.1,0,118.6ZM458.4,500.7c-13.5,3.9-32,6.7-43.2,15.5-17.8,14-9.5,41.5,14.2,37.7,19.8-3.1,29.7-36.1,28.9-53.2ZM524.6,677.4c-8.3.7-17,2.8-24.9,5s-17.8,5.3-18.5,7.4c.5,35.3,3.1,82.4,40.9,98,47.2,19.5,98.3-24.6,78.3-74.3-12.4-30.8-45.6-38.7-75.8-36.2Z"/>
        <path class="cls-2" d="M103.8,478.9l13,2c28.2,4.3,47,26,35.2,54.7-10.3,25-41.4,31.3-65.5,32.4-5.5.3-45.5.9-47.4-.4-3.4-2.3,2.6-4.3,3.7-5.3,3.7-3.3,3.3-10.5,4.4-15-1.5-34.6,2-70.9,0-105.3-.4-6.7-.9-17.6-8.5-19.7-1.6-2.2,0-3.1,2.3-3.3,12.3-1.4,34.1-.5,47,0,19.6.7,49.8,1.9,50.3,28.2.4,19.2-17.6,29.9-34.6,31.8ZM69.8,478.9h22.3c.4,0,4.2-1.2,5-1.4,21.6-7.8,20.8-42.3,0-51.3-1.3-.6-9.1-3.1-9.9-3.1h-17.4v55.9ZM69.8,482.1v74.1c0,.4,1.6,4.7,2,5.2,2.8,3.4,18,2.9,22.6,2.4,53.5-4.8,43.1-81.8-3.2-81.8h-21.5Z"/>
        <path class="cls-2" d="M530,432.7c36.2-31.5,67.9-79,117.8-89.5s61.6,2.2,64,35.6c2.3,32.3-38.3,55.8-66,42.5-12-5.7-11.7-29.4,4-27.5,17.1,2,7.9,32.7,33.4,21.9,36.7-15.6,30.1-66.3-11.5-69.8-58.4-4.8-99.7,55.8-138.4,89.9l-.5,118.6c.3,5.8,3.8,8.7,9.3,9.3,19.2,2.1,42.7,1.1,55-15.5,1-1.4,4.8-10.2,7-8l-1.6,27.5h-100.4c-.9-4.1,2.3-4.1,4.1-6.1,3.1-3.5,3.3-9.4,4.1-13.7-1-36.3,1.3-73.1,0-109.4,0-2.1-1-4-.8-6h20.6Z"/>
        <path class="cls-2" d="M765.2,478.9c16-14.5,49.5-28.5,67.2-10.1,15,15.6,6.7,61.8,9,83.3.4,3.8,1.4,7,3.9,9.9s5,2.2,4.1,6h-37.6c-.6,0-1.7-1.9-1.1-2.7,4.3-2.7,6.3-4.2,7.7-9.3,2.5-9.7,2.3-57.2.2-67.4-6.1-29.2-37.1-21.4-53.2-5.7v68.6c.6,4.2,1.2,7.3,4,10.6s5,2.2,4.1,6h-38.1c-.9-4.1,2.3-4.1,4.1-6.1,2.3-2.6,3.7-8.8,4-12.2,1.4-15.9,1.2-44.6,0-60.7-.4-5.7-1.9-11.8-8-13.4l-.2-3.4,26.7-12.3c.9-.4,3.3,1.2,3.3,1.6v17.4Z"/>
        <path class="cls-2" d="M701.7,567.9c-10.8-1.3-9.5-9.1-9.3-17.8-13.6,12.4-34.4,24.9-53.4,17.4-28.1-11.1-14.1-60-18.8-84-1.3-6.4-8.8-7.7-8-11.4l28-12.4,1.6,1.4c1.7,23-.8,47,.4,70.1.4,7,1.4,19.3,6.1,24.7,11.3,12.9,35.8.3,44-11.1l.2-58.1c-.5-5.3-2.6-9.5-8-11.1v-3.8s27.4-11.9,27.4-11.9l1.7.8c.9.9.7,2.1.8,3.3,2.6,27.1-2.3,58.4,0,85.9.3,4.1,1.2,9.1,4,12.2,1.9,2.1,4.9,2.2,4.1,6-6.5-.6-14.3.8-20.6,0Z"/>
        <path class="cls-2" d="M932,525.8l-5,13.2c-5.3,11.5-13.3,23.1-25.5,27.9-18.5,7.4-40.1-1.6-41.6-23-2.3-33.5,49.7-37.9,72.1-47.1-.5-38-43.9-34.5-62-10.8-1.4-1-1.6-1.6-.8-3.2s8.4-8.7,10.2-10.1c26-20.3,70.7-19.6,73.6,20.9,1.1,14.9-3.1,55.1,2.8,66.1,1.7,3.2,3.6,3.1,6,5.3.5.9-.6,2.7-1.1,2.7h-20.2c-3,0-8.5-3.6-8.5-6.9v-35.2ZM932,500.7c-16.2,4.7-50.3,9.9-51.8,31.1-.7,9.7,2,18.1,12,21.3,27.2,8.5,41.8-31.6,39.8-52.4Z"/>
        <path class="cls-2" d="M320,567.9h-38.1c-.7-4.4,3.9-4.6,5.8-8.3,1.2-2.4,1.7-5.6,2.3-8.3-2.3-41.4,3.1-86.2,0-127.1-.2-3-.8-6.2-2.6-8.8s-6.1-3.2-5.6-5.7l1.3-2,26.5-11.2,1.7,1.5.4,151c.9,3.3.8,7.6,2.2,10.7s6.7,3.9,5.8,8.3Z"/>
        <path class="cls-2" d="M334.9,567.9c-.8-.2-1.6-1.8-1.1-2.7,7.6-3.7,8.3-11.9,8.8-19.5,2.7-40.4-1.2-84.7-1-125.3-.7-3-1.9-5.1-4.3-7.1-2.1-1.8-6.3-1.6-2.3-5.5l26.6-11.5,1.9,1.4.2,1.5c2,47.6-2.8,97.6,0,144.9.3,4.5,1,14.6,4,17.8s7.4,2.4,3.7,6.1h-36.4Z"/>
        <path class="cls-2" d="M268.1,498.3h-80.1v14.2c0,6.3,5.4,18.7,9.4,23.8,16.4,20.9,45.5,20.6,65.5,4.9,1.1-.9,6-7.3,6.9-3.6s-4.8,7.8-6.1,9.3c-17.2,20-41.9,29.5-67.1,17.7-35.6-16.6-35.5-68.4-7-91.8,27.7-22.8,76.5-15,78.5,25.5ZM247.1,495c-6-40.2-54.1-42-58.3,0h58.3Z"/>
        <path class="cls-2" d="M464.9,350.1l-39.3,8.1c-26.7,8.4-26.7,39.6-30.7,62.4-4.1-21.6-3.3-50.2-26.8-60.6-13.7-6.1-29.4-6.8-44-9.4,14.7-2.7,31.1-3,44.8-9.4,22.5-10.5,22.6-39.4,26-60.6,3.4,15.8,3.2,33.8,11.9,48,11.1,18.1,39.2,19,58.1,21.6Z"/>
        <path class="cls-2" d="M645.4,239.2c-12.6.9-27.4,2.1-33,15.2-2.9,6.9-3.7,14.7-4.6,22.1-2.5-7.8-2.2-16.5-5.9-24-5.7-11.4-19.6-11.6-30.5-13.2s-1.4.4-1.2-1.6c7.1-.5,16.7-1.5,23.2-4.7,12.1-5.9,11.9-22,14.4-33.3,2,13.6,2.2,29.1,17.2,34.6,5.9,2.2,11.9,2,17.6,3.4,1.1.3,2.5,0,2.8,1.6Z"/>
      </g>
    </g>
  </g>
</svg>